<svg id="svg6783"
     height="30"
     viewBox="0 0 8.4666662 8.4666662"
     width="30"
     xmlns="http://www.w3.org/2000/svg"
><g id="layer1"
    transform="translate(229.81 -96.521)">
    <path id="path2318-6"
          fill="white"
          d="m-226.87038 97.109515c-.28342.02172-.39877.608559-.22434.844375l3.88075 2.80419-3.88075 2.80235c-.33886.0905.0385 1.2205.57648.79833l4.43358-3.20243c.27178-.19672.27178-.60161 0-.79833l-4.43358-3.202448c-.0795-.05969-.25279-.04172-.35214-.04604z"
          font-variant-ligatures="normal" font-variant-position="normal" font-variant-caps="normal" font-variant-numeric="normal" font-variant-alternates="normal" font-feature-settings="normal" text-indent="0" text-align="start" text-decoration-line="none" text-decoration-style="solid" text-decoration-color="#000000" text-transform="none" text-orientation="mixed" white-space="normal" shape-padding="0" isolation="auto" mix-blend-mode="normal" solid-color="#000000" solid-opacity="1" vector-effect="none"/><g fill="#00c853"><path id="path2320-8" d="m-226.81466 97.055533a.49275062.49275062 0 0 0 -.48556.498279v6.406698a.49283.49283 0 1 0 .98566 0v-6.406698a.49275062.49275062 0 0 0 -.5001-.498279z" font-variant-ligatures="normal" font-variant-position="normal" font-variant-caps="normal" font-variant-numeric="normal" font-variant-alternates="normal" font-feature-settings="normal" text-indent="0" text-align="start" text-decoration-line="none" text-decoration-style="solid" text-decoration-color="#000000" text-transform="none" text-orientation="mixed" white-space="normal" shape-padding="0" isolation="auto" mix-blend-mode="normal" solid-color="#000000" solid-opacity="1" vector-effect="none"/><path id="path2404" d="m-228.78595 97.055533a.49275062.49275062 0 0 0 -.48556.498279v6.406698a.4928255.4928255 0 1 0 .98565 0v-6.406698a.49275062.49275062 0 0 0 -.50009-.498279z" font-variant-ligatures="normal" font-variant-position="normal" font-variant-caps="normal" font-variant-numeric="normal" font-variant-alternates="normal" font-feature-settings="normal" text-indent="0" text-align="start" text-decoration-line="none" text-decoration-style="solid" text-decoration-color="#000000" text-transform="none" text-orientation="mixed" white-space="normal" shape-padding="0" isolation="auto" mix-blend-mode="normal" solid-color="#000000" solid-opacity="1" vector-effect="none"/></g></g></svg>