<svg id="svg6783"
     height="60"
     viewBox="0 0 8.4666662 8.4666662"
     width="60"
     xmlns="http://www.w3.org/2000/svg"
>
    <g id="layer1"
       transform="translate(229.81 -96.521)"
    >
        <path id="path2318"
              fill="white"
              d="m-227.78272 97.052425a.52668179.5317696 0 0 0 -.27071.967429l3.75254 2.735056-3.75254 2.73505a.52743406.53252915 0 1 0 .618.86314l4.34206-3.16662a.52668179.5317696 0 0 0 0-.86314l-4.34206-3.16662a.52668179.5317696 0 0 0 -.34729-.104295z"
              font-variant-ligatures="normal"
              font-variant-position="normal"
              font-variant-caps="normal"
              font-variant-numeric="normal"
              font-variant-alternates="normal"
              font-feature-settings="normal"
              text-indent="0" text-align="start"
              text-decoration-line="none"
              text-decoration-style="solid"
              text-decoration-color="#white"
              text-transform="none"
              text-orientation="mixed"
              white-space="normal"
              shape-padding="0"
              isolation="auto"
              mix-blend-mode="normal"
              solid-color="#000000"
              solid-opacity="1"
              vector-effect="none"/>

        <path id="path2320" d="m-227.75245 97.048829a.52668179.5317696 0 0 0 -.51827.539458v6.333243a.52668179.5317696 0 1 0 1.05257 0v-6.333243a.52668179.5317696 0 0 0 -.5343-.539458z"
              fill="#00c853" font-variant-ligatures="normal" font-variant-position="normal" font-variant-caps="normal" font-variant-numeric="normal" font-variant-alternates="normal" font-feature-settings="normal" text-indent="0" text-align="start" text-decoration-line="none" text-decoration-style="solid"
              text-decoration-color="#000000" text-transform="none" text-orientation="mixed" white-space="normal" shape-padding="0" isolation="auto" mix-blend-mode="normal" solid-color="#000000" solid-opacity="1" vector-effect="none"/></g></svg>