<svg id="svg6783"
     height="30"
     viewBox="0 0 8.4666662 8.4666662"
     width="30" xmlns="http://www.w3.org/2000/svg"
><g id="layer1"
    transform="translate(229.81 -96.521)"
><path id="path2318-6-3"
       fill="white"
       d="m-224.32497 97.052465c-.11056-.0027-.21881.03191-.30733.0982l-4.43537 3.202415c-.27179.19671-.27179.60162 0 .79833l4.43537 3.20241c.52242.17401 1.03673-.61786.46682-.9957l-3.77288-2.60497 3.88253-2.804154c.38971-.272216-.18161-.620349-.26914-.896531z"
       font-variant-ligatures="normal"
       font-variant-position="normal"
       font-variant-caps="normal"
       font-variant-numeric="normal"
       font-variant-alternates="normal"
       font-feature-settings="normal"
       text-indent="0"
       text-align="start"
       text-decoration-line="none"
       text-decoration-style="solid"
       text-decoration-color="#000000"
       text-transform="none"
       text-orientation="mixed"
       white-space="normal"
       shape-padding="0"
       isolation="auto"
       mix-blend-mode="normal"
       solid-color="#000000"
       solid-opacity="1"
       vector-effect="none"
/><g fill="#00c853">
    <path id="path2320-8-2"
          d="m-224.35225 97.050647a.49274677.49274677 0 0 0 -.48554.498274v6.406639a.49282.49282 0 1 0 .98564 0v-6.406639a.49274677.49274677 0 0 0 -.5001-.498274z"
          font-variant-ligatures="normal"
          font-variant-position="normal"
          font-variant-caps="normal"
          font-variant-numeric="normal"
          font-variant-alternates="normal"
          font-feature-settings="normal"
          text-indent="0"
          text-align="start"
          text-decoration-line="none"
          text-decoration-style="solid"
          text-decoration-color="#000000"
          text-transform="none"
          text-orientation="mixed"
          white-space="normal"
          shape-padding="0"
          isolation="auto"
          mix-blend-mode="normal"
          solid-color="#000000"
          solid-opacity="1"
          vector-effect="none"
    /><path id="path2404-4"
            d="m-222.38096 97.050647a.49274677.49274677 0 0 0 -.48555.498274v6.406639a.49282167.49282167 0 1 0 .98563 0v-6.406639a.49274677.49274677 0 0 0 -.50008-.498274z"
            font-variant-ligatures="normal" font-variant-position="normal" font-variant-caps="normal" font-variant-numeric="normal" font-variant-alternates="normal" font-feature-settings="normal" text-indent="0" text-align="start" text-decoration-line="none" text-decoration-style="solid" text-decoration-color="#000000" text-transform="none" text-orientation="mixed" white-space="normal" shape-padding="0" isolation="auto" mix-blend-mode="normal" solid-color="#000000" solid-opacity="1" vector-effect="none"/></g></g></svg>