<svg id="svg6783"
     height="30"
     viewBox="0 0 8.4666662 8.4666662"
     width="30"
     xmlns="http://www.w3.org/2000/svg"
>
    <g id="layer1" transform="translate(229.81 -96.521)">
    <path id="path2343"
          fill="white"
          d="m-228.78705 97.066687a.49201963.49201963 0 1 0 0 .984035h5.90242v5.904238a.49201976.49201976 0 1 0 .98403 0v-6.39626a.49194777.49194777 0 0 0 -.49201-.492013z"
          font-variant-ligatures="normal"
          font-variant-position="normal"
          font-variant-caps="normal"
          font-variant-numeric="normal"
          font-variant-alternates="normal"
          font-feature-settings="normal"
          text-indent="0"
          text-align="start"
          text-decoration-line="none"
          text-decoration-style="solid"
          text-decoration-color="#000000"
          text-transform="none"
          text-orientation="mixed"
          white-space="normal"
          shape-padding="0"
          isolation="auto"
          mix-blend-mode="normal"
          solid-color="#000000"
          solid-opacity="1"
          vector-effect="none"
          paint-order="normal"
    /><path id="rect2334" d="m-228.79431 97.061239a.49194777.49194777 0 0 0 -.48477.497461v6.39626a.49194777.49194777 0 0 0 .49203.4902h6.39444a.49194777.49194777 0 1 0 0-.98223h-5.90242v-5.90423a.49194777.49194777 0 0 0 -.49928-.497461z"
            fill="#00c853"
            font-variant-ligatures="normal"
            font-variant-position="normal" font-variant-caps="normal" font-variant-numeric="normal" font-variant-alternates="normal" font-feature-settings="normal" text-indent="0" text-align="start" text-decoration-line="none" text-decoration-style="solid" text-decoration-color="#000000" text-transform="none" text-orientation="mixed" white-space="normal" shape-padding="0" isolation="auto" mix-blend-mode="normal" solid-color="#000000" solid-opacity="1" vector-effect="none" paint-order="normal"/></g></svg>