<svg id="Layer_1"
     enable-background="new 0 0 90 90"
     height="100"
     viewBox="0 0 90 90"
     width="100"
     stroke="white"
     fill="white"
     xmlns="http://www.w3.org/2000/svg"><g><path d="m9.238 24.563 30.146 22.435c.673.494 1.594.494 2.268 0l30.146-22.435v32.762c0 .613-.59 1.257-1.642 1.257h-59.283c-1.045 0-1.635-.644-1.635-1.257zm1.635-4.194h59.284c.299 0 .55.057.77.141-.068.041-.132.083-.188.128l-30.222 22.5-30.22-22.499c-.062-.046-.125-.088-.193-.124.22-.089.475-.146.769-.146zm0-3.773c-2.868 0-5.424 2.162-5.424 5.041v35.688c0 2.874 2.556 5.03 5.424 5.03h59.284c2.874 0 5.435-2.156 5.435-5.03v-35.688c0-2.879-2.561-5.041-5.435-5.041z"/><path d="m74.583 26.517c-1.061-.009-1.924.837-1.924 1.886 0 1.055.863 1.903 1.924 1.887h5.152c1.159 0 1.79.698 1.79 1.306v36.17c0 .607-.631 1.315-1.79 1.315h-61.857c-1.154 0-1.791-.708-1.791-1.315v-5.748c.015-1.055-.836-1.917-1.896-1.917-1.056 0-1.908.862-1.892 1.917v5.748c0 2.936 2.654 5.083 5.579 5.083h61.857c2.93 0 5.584-2.147 5.584-5.083v-36.17c0-2.931-2.654-5.079-5.584-5.079z"/></g></svg>