<?xml version="1.0" ?><svg stroke="black" fill="white" viewBox="0 0 408.8 468.31" xmlns="http://www.w3.org/2000/svg"><title/><g data-name="Layer 2" id="Layer_2"><g data-name="Layer 1" id="Layer_1-2"><g data-name="Layer 2" id="Layer_2-2"><path d="M204.4,288.36l-3.5.65L189,291.21l-7,1.29-73.61,13.56-7,1.29V424.07l44.24,44.24H207.9V287.72Zm-3.5,173H148.49l-40.14-40.14v-108l92.55-17.05Z"/><polygon points="108.35 449.51 52.74 449.51 52.74 295.76 108.35 295.76 108.35 310.27 101.35 310.27 101.35 302.76 59.74 302.76 59.74 442.51 101.35 442.51 101.35 422.62 108.35 422.62 108.35 449.51"/><polygon points="59.74 299.26 52.74 299.26 52.74 232.44 204.4 232.44 204.4 239.44 59.74 239.44 59.74 299.26"/><polygon points="170.96 286.47 104.1 286.47 86.67 269.05 86.67 235.94 93.67 235.94 93.67 266.15 107 279.47 168.06 279.47 181.95 265.58 181.95 235.94 188.95 235.94 188.95 268.48 170.96 286.47"/><polygon points="188.95 295.41 181.95 295.41 181.95 258.58 194.82 271.45 204.4 271.45 204.4 278.45 191.92 278.45 188.95 275.48 188.95 295.41"/><polygon points="162.3 270.55 90.17 270.55 90.17 263.55 159.41 263.55 164.94 258.01 164.94 235.94 171.94 235.94 171.94 260.91 162.3 270.55"/><polygon points="35.88 415.93 0 380.05 0 293.96 36.43 257.53 41.38 262.48 7 296.86 7 377.15 40.83 410.98 35.88 415.93"/><polygon points="24.7 278.99 17.7 278.99 17.7 0.25 24.69 0 41.84 235.69 34.86 236.2 24.7 96.58 24.7 278.99"/><rect height="7" transform="translate(-177.67 154) rotate(-45)" width="24.01" x="85.05" y="287.96"/><polygon points="204.4 185.36 174.5 185.36 182.16 60.96 204.4 60.96 204.4 67.96 188.74 67.96 181.95 178.36 204.4 178.36 204.4 185.36"/><rect height="7" width="22.56" x="181.84" y="119.66"/><polygon points="201.75 232.76 162.22 187.15 175.03 47.66 204.4 47.66 204.4 54.66 181.42 54.66 169.47 184.82 207.04 228.18 201.75 232.76"/><rect height="43.59" transform="translate(-81.33 154.8) rotate(-36.9)" width="7" x="187.81" y="177.49"/><path d="M82.92,159.21,52.87,52.1l6.74-1.89,26.83,95.64C146.89,87,173.83,95.7,175,96.11l-2.37,6.59,1.18-3.29-1.1,3.32c-.26-.08-26.1-7.19-85.54,52.25Z"/><path d="M165.85,186l0-3.5c-.3,0-1.39,0-3.17.14-8.78.56-34.27,3.41-63.2,17.9-2.12,1.06-4.26,2.18-6.41,3.38a174.46,174.46,0,0,0-33.29,23.86V51.16l-3-.15h0l-4-.19L38.85,194.47h0l-4,41.12V414.35l.67,1.22,17.21,31.34.43.78,6.14-3.37-6.57-12L41.86,412.55V236.11L52.74,123.65V244.39l6-6q3.12-3.12,6.3-6c42-37.79,90-42.35,99.28-42.89,1-.06,1.51-.07,1.58-.07Zm0,0,0,3.5h0Z"/><rect height="54.68" transform="translate(-38.22 25.24) rotate(-13.09)" width="7" x="87.36" y="151.8"/><path d="M300.45,306.06,226.84,292.5l-7-1.29L207.9,289l-3.5-.65-3.5-.64V468.31h62.31l44.24-44.24V307.35ZM260.31,461.31H207.9V296.13l92.55,17.05v108Z"/><polygon points="356.06 449.51 300.45 449.51 300.45 422.62 307.45 422.62 307.45 442.51 349.06 442.51 349.06 302.76 307.45 302.76 307.45 310.27 300.45 310.27 300.45 295.76 356.06 295.76 356.06 449.51"/><polygon points="356.06 299.26 349.06 299.26 349.06 239.44 204.4 239.44 204.4 232.44 356.06 232.44 356.06 299.26"/><polygon points="304.7 286.47 237.83 286.47 219.84 268.48 219.84 235.94 226.84 235.94 226.84 265.58 240.73 279.47 301.8 279.47 315.12 266.15 315.12 235.94 322.12 235.94 322.12 269.05 304.7 286.47"/><polygon points="226.84 295.41 219.84 295.41 219.84 275.48 216.88 278.45 204.4 278.45 204.4 271.45 213.98 271.45 226.84 258.58 226.84 295.41"/><polygon points="318.62 270.55 246.49 270.55 236.85 260.91 236.85 235.94 243.85 235.94 243.85 258.01 249.39 263.55 318.62 263.55 318.62 270.55"/><polygon points="372.92 415.93 367.97 410.98 401.8 377.15 401.8 296.86 367.42 262.48 372.37 257.53 408.8 293.96 408.8 380.05 372.92 415.93"/><polygon points="391.09 278.99 384.09 278.99 384.09 96.58 373.93 236.2 366.95 235.69 384.1 0 391.09 0.25 391.09 278.99"/><rect height="24.01" transform="translate(-114.79 305.8) rotate(-45)" width="7" x="308.24" y="279.46"/><polygon points="234.29 185.36 204.4 185.36 204.4 178.36 226.85 178.36 220.05 67.96 204.4 67.96 204.4 60.96 226.63 60.96 234.29 185.36"/><rect height="7" width="22.56" x="204.4" y="119.66"/><polygon points="207.04 232.76 201.75 228.18 239.33 184.82 227.38 54.66 204.4 54.66 204.4 47.66 233.76 47.66 246.57 187.15 207.04 232.76"/><rect height="7" transform="translate(-72.47 253.54) rotate(-53.1)" width="43.59" x="195.69" y="195.79"/><path d="M325.88,159.21,321.65,155c-59.37-59.37-85.22-52.36-85.47-52.28l-2.36-6.59c1.14-.4,28.08-9.11,88.54,49.74l26.83-95.64,6.74,1.89Z"/><path d="M355.63,447.7l-6.14-3.37,17.45-31.78V236.11L356.06,123.65V244.39l-6-6c-47.75-47.76-106.58-48.93-107.16-48.93l.07-7c2.42,0,57.63,1.13,106.07,45.27V51.16l7-.34,17.9,185V414.35Z"/><rect height="7" transform="translate(71.43 448.22) rotate(-76.91)" width="54.68" x="290.59" y="175.64"/></g></g></g></svg>