<?xml version="1.0" encoding="iso-8859-1"?>
<svg version="1.1" id="Capa_1" xmlns="http://www.w3.org/2000/svg"
	 x="0px" y="0px"
	 viewBox="0 0 512 512" style="enable-background:new 0 0 512 512;"
	 xml:space="preserve">
<g>
	<g>
		<rect y="462" width="512" height="50"/>
	</g>
</g>
<g>
	<g>
		<path fill="white" d="M475.297,262H36.703l-34,170h506.594L475.297,262z M391,282h30v30h-30V282z M341,282h30v30h-30V282z M291,282h30v30h-30
			V282z M296,332v30h-30v-30H296z M241,282h30v30h-30V282z M246,332v30h-30v-30H246z M191,282h30v30h-30V282z M141,282h30v30h-30
			V282z M91,282h30v30H91V282z M110,412H80v-30h30V412z M116,332h30v30h-30V332z M160,412h-30v-30h30V412z M166,332h30v30h-30V332z
			 M332,412H180v-30h152V412z M346,362h-30v-30h30V362z M382,412h-30v-30h30V412z M396,362h-30v-30h30V362z M432,412h-30v-30h30V412
			z"/>
	</g>
</g>
<g>
	<g>
		<path fill="white" d="M40,0v232h432V0H40z M176.292,163.756l-20.824,21.596l-57.077-55.039l57.077-55.039l20.824,21.596l-34.682,33.443
			L176.292,163.756z M223.538,193.819l-21.213-21.213l92.691-92.69l21.213,21.213L223.538,193.819z M356.533,185.352l-20.824-21.596
			l34.682-33.443L335.708,96.87l20.824-21.596l57.077,55.039L356.533,185.352z"/>
	</g>
</g>
</svg>
