<?xml version="1.0" encoding="iso-8859-1"?>

<svg
		version="1.1" id="Capa_1" xmlns="http://www.w3.org/2000/svg" x="0px" y="0px"
		width="100%"
		height="100%"
		viewBox="0 0 502.686 502.686" style="enable-background:new 0 0 502.686 502.686;" xml:space="preserve">
<g>
	<g>
		<g>
			<path style="fill:white;" d="M251.343,118.726c-76.059,0-137.773,61.606-137.773,137.751c0,46.356,23.038,87.146,58.22,112.103
				h159.149c35.074-24.957,58.155-65.748,58.155-112.103C389.115,180.375,327.423,118.726,251.343,118.726z M251.278,345.391
				c-8.003,0-14.388-23.922-14.388-53.431s6.407-53.452,14.388-53.452c8.046,0,14.56,23.922,14.56,53.452
				C265.86,321.469,259.346,345.391,251.278,345.391z"/>
			<path style="fill:white;" d="M172.221,482.193h37.296c4.94,11.67,21.355,20.492,41.804,20.492
				c20.471,0,36.864-8.822,41.804-20.492h37.361v-97.457H172.221V482.193z M189.521,405.38h123.644v17.472H189.521V405.38z
				 M189.521,440.346h123.644v17.516H189.521V440.346z"/>
			<path style="fill:white;" d="M233.87,0h35.009v82.228H233.87V0z M53.28,96.141l24.699-24.742l58.176,58.09l-24.677,24.763
				L53.28,96.141z M366.509,129.511l58.176-58.155l24.72,24.742l-58.176,58.155L366.509,129.511z"/>
		</g>
	</g>
</g>
</svg>
