<svg id="Layer_1" enable-background="new 0 0 90 90"
     height="100"
     viewBox="0 0 90 90"
     width="100"
     stroke="white"
     fill="white"
     xmlns="http://www.w3.org/2000/svg"><g><path d="m24.197 70.458h43.125v7.213c0 1.352-.842 2.143-1.619 2.143h-39.886c-.778 0-1.62-.791-1.62-2.143zm1.62-62.396h39.886c.777 0 1.619.797 1.619 2.146v56.482h-43.125v-56.482c0-1.35.842-2.146 1.62-2.146zm0-3.768c-3.119 0-5.413 2.803-5.413 5.914v67.463c0 3.113 2.294 5.914 5.413 5.914h39.886c3.119 0 5.412-2.801 5.412-5.914v-67.463c0-3.111-2.293-5.914-5.412-5.914z"/><path d="m41.095 73.253c-1.056-.016-1.924.832-1.924 1.881 0 1.055.868 1.904 1.924 1.887h6.452c1.055.018 1.922-.832 1.922-1.887 0-1.049-.867-1.896-1.922-1.881z"/></g></svg>