<svg
        id="Layer_1"
        enable-background="new 0 0 90 90"
        height="100"
        viewBox="0 0 90 90"
        width="100"
        stroke="white"
        fill="white"
        xmlns="http://www.w3.org/2000/svg"><g><path d="m29.697 48.497h14.666v28.328c-8.406-7.242-13.627-17.404-14.666-28.328zm-15.992 0h12.189c.893 10.197 5.131 19.803 12.037 27.338-8.359-2.137-15.652-7.416-20.09-15.051-2.224-3.846-3.603-8.025-4.136-12.287zm24.233-35.411c-7.822 8.533-12.242 19.711-12.236 31.4 0 .078.004.156.01.239h-12.253c-.047-5.723 1.41-11.454 4.389-16.584 4.432-7.634 11.73-12.919 20.094-15.055zm6.425-.982v32.621h-14.865c0-.083-.004-.161-.004-.239-.012-12.437 5.424-24.25 14.863-32.382zm1.897-4.048c-.057 0-.109.005-.162.01-13.014.056-25.025 6.98-31.537 18.194-6.535 11.262-6.535 25.148 0 36.408 6.516 11.221 18.543 18.148 31.564 18.195.047.006.088.006.135.006 10.705 0 20.883-4.674 27.832-12.773.748-.785.68-2.029-.146-2.729-.824-.703-2.068-.572-2.732.285-4.441 5.17-10.344 8.771-16.84 10.42 2.906-3.098 5.383-6.58 7.348-10.357 1.07-2.205-2.18-3.873-3.371-1.73-2.539 4.885-6.002 9.234-10.199 12.82v-28.308h4.17c1.051 0 1.902-.848 1.902-1.887 0-1.042-.852-1.89-1.902-1.885h-4.17v-32.74c5.184 4.422 9.232 10.008 11.814 16.297.381.992 1.504 1.476 2.492 1.075.982-.404 1.441-1.533 1.018-2.504-2.115-5.15-5.135-9.864-8.902-13.939 10.09 2.63 18.521 9.926 22.352 19.935.33 1.03 1.463 1.57 2.477 1.186 1.02-.384 1.5-1.538 1.061-2.525-5.405-14.115-19.021-23.454-34.204-23.454z"/><path d="m63.246 35.287c.213.011.381.063.533.147l15.063 8.787-5.801 1.201c-1.264.265-1.896 1.682-1.248 2.793l4.158 7.174c.193.338.1.682-.234.879l-2.77 1.588c-.34.193-.693.102-.887-.236l-4.16-7.156c-.643-1.119-2.193-1.279-3.057-.318l-3.924 4.375-.109-17.377c-.006-.463.355-1.044 1.057-1.445.016-.005.02-.01.031-.021.02-.009.041-.014.057-.03.44-.261.936-.38 1.291-.361zm.209-3.771c-3.1 0-6.369 2.452-6.438 5.654l.109 17.456c.012 1.678.486 3.211 1.893 4.006 1.4.789 3.15.16 4.08-.867l2.826-3.166 2.854 4.906c1.211 2.096 3.959 2.828 6.061 1.621l2.773-1.596c2.102-1.205 2.838-3.939 1.625-6.027l-2.857-4.916 4.201-.863c1.363-.281 2.779-1.475 2.789-3.081.01-1.601-1.082-2.781-2.539-3.628l-15.137-8.834v.009c-.684-.395-1.426-.67-2.24-.67z"/></g></svg>